<svg aria-hidden="true" style="position: absolute; width: 0; height: 0; overflow: hidden;" version="1.1" xmlns="http://www.w3.org/2000/svg" xmlns:xlink="http://www.w3.org/1999/xlink">
<defs>
<symbol id="icon-mobile-section" viewBox="0 0 32 32">
<path d="M31.665 19.769c-0.203-0.081-0.436-0.030-0.587 0.128l-2.278 2.394v-14.22h0.003l2.173-2.346c0.2-0.216 0.187-0.554-0.030-0.754l-0-0-0.782-0.728 1.087-1.173c0.2-0.216 0.186-0.554-0.030-0.753l-2.347-2.173c-0.216-0.2-0.553-0.187-0.753 0.029l-3.792 4.094h-18.462c-0.002-1.472-1.195-2.665-2.667-2.667h-0.533c-1.472 0.002-2.665 1.195-2.667 2.667v22.932c0 0.294 0.239 0.533 0.533 0.533h8.073l-1.12 1.345c-0.188 0.227-0.157 0.563 0.069 0.751l2.459 2.047c0.226 0.189 0.563 0.158 0.751-0.069l0-0 2.73-3.279c0.188-0.227 0.31-0.503 0.35-0.795h9.773l-3.205 3.366c-0.203 0.213-0.194 0.551 0.019 0.754 0.099 0.094 0.231 0.147 0.368 0.147h10.666c0.295 0 0.533-0.239 0.533-0.533v-11.199c0-0.218-0.133-0.415-0.335-0.496zM29.831 5.385l-1.031 1.115v-0.784l0.64-0.693 0.391 0.363zM27.733 5.298l-4.511 4.874-1.566-1.449 5.434-5.872 1.566 1.449-0.917 0.99h-0.006v0.008zM22.198 10.676l-1.227 0.358 0.262-1.251 0.965 0.893zM30.105 2.734l-0.725 0.784-1.566-1.45 0.725-0.783 1.566 1.448zM2.667 2.665h0.533c0.884 0 1.6 0.716 1.6 1.6v20.279c-0.459-0.353-1.021-0.545-1.6-0.547h-0.533c-0.579 0.002-1.141 0.194-1.6 0.547v-20.279c0-0.884 0.716-1.6 1.6-1.6zM3.2 25.064c0.884 0 1.6 0.717 1.6 1.6h-3.733c0-0.883 0.716-1.6 1.6-1.6h0.533zM12.677 27.843l-0.341 0.41-1.639-1.365 0.341-0.41c0.188-0.226 0.525-0.257 0.751-0.069 0 0 0 0 0.001 0l0.82 0.681c0.227 0.188 0.258 0.524 0.069 0.751l-0 0v0.002zM8.648 29.348l1.365-1.64 1.639 1.365-1.365 1.64-1.64-1.365zM13.622 26.664c-0.089-0.148-0.201-0.28-0.332-0.391l-0.82-0.682c-0.679-0.565-1.688-0.473-2.253 0.206l-0.724 0.868h-3.627v-21.332h17.475l-2.83 3.058c-0.041 0.046-0.073 0.098-0.095 0.155-0.006 0.015-0.011 0.030-0.017 0.046-0.002 0.006-0.004 0.012-0.007 0.018-0.004 0.010-0.008 0.020-0.010 0.031l-0.637 3.044c-0.060 0.288 0.125 0.571 0.413 0.631 0.086 0.018 0.174 0.014 0.258-0.010l2.987-0.87c0.007-0.002 0.014-0.006 0.021-0.009s0.012-0.006 0.018-0.008c0.013-0.005 0.027-0.012 0.042-0.019 0.060-0.027 0.114-0.065 0.16-0.113l4.089-4.418v16.542l-3.099 3.253h-11.013zM22.044 30.93l8.889-9.333v9.333h-8.889zM25.6 29.863c-0.216 0-0.41-0.13-0.493-0.329s-0.037-0.429 0.116-0.581l3.733-3.733c0.1-0.1 0.236-0.156 0.377-0.156 0.294 0 0.534 0.238 0.534 0.533v3.733c0 0.294-0.239 0.533-0.534 0.533h-3.733zM28.8 28.797v-1.912l-1.913 1.912h1.913zM19.733 20.264v-5.866c-0.001-0.142-0.057-0.277-0.157-0.378l-3.2-3.2c-0.208-0.208-0.546-0.208-0.754 0l-3.2 3.2c-0.099 0.101-0.155 0.236-0.156 0.378v5.866h-3.733c-0.295 0-0.533 0.239-0.533 0.533s0.239 0.533 0.533 0.533h14.933c0.294 0 0.533-0.239 0.533-0.533s-0.239-0.533-0.533-0.533h-3.733zM17.913 13.864h-3.825l1.913-1.912 1.913 1.912zM13.333 14.931h5.334v5.333h-5.334v-5.333zM15.466 8.532h1.067v1.067h-1.067v-1.067zM16.533 22.397h-1.067v1.067h1.067v-1.067z"></path>
</symbol>

<symbol id="icon-twitter" viewBox="0 0 32 32">
<path d="M32 5.745c-1.19 0.522-2.458 0.868-3.78 1.036 1.36-0.812 2.398-2.088 2.886-3.626-1.268 0.756-2.668 1.29-4.16 1.588-1.204-1.282-2.92-2.076-4.792-2.076-3.632 0-6.556 2.948-6.556 6.562 0 0.52 0.044 1.020 0.152 1.496-5.454-0.266-10.28-2.88-13.522-6.862-0.566 0.982-0.898 2.106-0.898 3.316 0 2.272 1.17 4.286 2.914 5.452-1.054-0.020-2.088-0.326-2.964-0.808 0 0.020 0 0.046 0 0.072 0 3.188 2.274 5.836 5.256 6.446-0.534 0.146-1.116 0.216-1.72 0.216-0.42 0-0.844-0.024-1.242-0.112 0.85 2.598 3.262 4.508 6.13 4.57-2.232 1.746-5.066 2.798-8.134 2.798-0.538 0-1.054-0.024-1.57-0.090 2.906 1.874 6.35 2.944 10.064 2.944 12.072 0 18.672-10 18.672-18.668 0-0.29-0.010-0.57-0.024-0.848 1.302-0.924 2.396-2.078 3.288-3.406z"></path>
</symbol>
<symbol id="icon-instagram" viewBox="0 0 32 32">
<path d="M7 3.5c0 1.933-1.567 3.5-3.5 3.5s-3.5-1.567-3.5-3.5c0-1.933 1.567-3.5 3.5-3.5s3.5 1.567 3.5 3.5zM0 10h7.156v22h-7.156v-22zM26.6 10.242c-0.009-0.003-0.018-0.006-0.027-0.009-0.050-0.016-0.099-0.033-0.153-0.048-0.096-0.022-0.192-0.040-0.29-0.056-0.38-0.076-0.796-0.13-1.284-0.13-4.172 0-6.818 3.034-7.69 4.206v-4.206h-7.156v22h7.156v-12c0 0 5.408-7.532 7.69-2v14h7.154v-14.846c0-3.324-2.278-6.094-5.352-6.896-0.016-0.005-0.032-0.010-0.048-0.016z"></path>
</symbol>
<symbol id="icon-facebook" viewBox="0 0 32 32">
<path d="M18 11v-4c0-1.104 0.896-2 2-2h2v-5h-4c-3.314 0-6 2.686-6 6v5h-4v5h4v16h6v-16h4l2-5h-6z"></path>
</symbol>
<symbol id="icon-youtube" viewBox="0 0 32 32">
<path d="M26.912 5.518c1.918 0.108 2.86 0.392 3.728 1.936 0.904 1.542 1.36 4.198 1.36 8.876v0.016c0 4.656-0.456 7.332-1.358 8.858-0.868 1.544-1.81 1.824-3.728 1.954-1.918 0.11-6.736 0.176-10.91 0.176-4.182 0-9.002-0.066-10.918-0.178-1.914-0.13-2.856-0.41-3.732-1.954-0.894-1.526-1.354-4.202-1.354-8.858v-0.016c0-4.676 0.46-7.332 1.354-8.874 0.876-1.546 1.82-1.828 3.734-1.938 1.914-0.128 6.734-0.182 10.916-0.182 4.174 0 8.992 0.054 10.908 0.184zM22 16.334l-10-6v12l10-6z"></path>
</symbol>
<symbol id="icon-in" viewBox="0 0 32 32">
<path d="M10 0h12c5.522 0 10 4.478 10 10v12c0 5.522-4.478 10-10 10h-12c-5.522 0-10-4.478-10-10v-12c0-5.522 4.478-10 10-10zM22 29c3.86 0 7-3.14 7-7v-12c0-3.86-3.14-7-7-7h-12c-3.86 0-7 3.14-7 7v12c0 3.86 3.14 7 7 7h12zM8 16c0-4.418 3.582-8 8-8s8 3.582 8 8c0 4.418-3.582 8-8 8s-8-3.582-8-8zM11 16c0 2.756 2.244 5 5 5s5-2.244 5-5c0-2.758-2.244-5-5-5s-5 2.242-5 5zM25.666 7.4c0 0.589-0.477 1.066-1.066 1.066s-1.066-0.477-1.066-1.066 0.477-1.066 1.066-1.066c0.589 0 1.066 0.477 1.066 1.066z"></path>
</symbol>
</defs>
</svg>
